<?xml version="1.0" encoding="UTF-8" standalone="no"?>
<!DOCTYPE svg PUBLIC "-//W3C//DTD SVG 1.1//EN"
 "http://www.w3.org/Graphics/SVG/1.1/DTD/svg11.dtd">
<!-- Generated by graphviz version 2.38.0 (20140413.2041)
 -->
<!-- Title: G Pages: 1 -->
<svg width="432pt" height="432pt"
 viewBox="0.00 0.00 432.00 432.00" xmlns="http://www.w3.org/2000/svg" xmlns:xlink="http://www.w3.org/1999/xlink">
<g id="graph0" class="graph" transform="scale(0.398524 0.398524) rotate(0) translate(4 1080)">
<title>G</title>
<polygon fill="white" stroke="none" points="-4,4 -4,-1080 1080,-1080 1080,4 -4,4"/>
<g id="clust2" class="cluster"><title>cluster_high_level</title>
<polygon fill="white" stroke="black" points="152.487,-980 152.487,-1068 1058.82,-1068 1058.82,-980 152.487,-980"/>
</g>
<g id="clust3" class="cluster"><title>cluster_level_2</title>
<polygon fill="white" stroke="black" points="242.691,-872 242.691,-960 650.754,-960 650.754,-872 242.691,-872"/>
</g>
<g id="clust4" class="cluster"><title>cluster_level_2a</title>
<polygon fill="white" stroke="black" points="169.669,-764 169.669,-852 513.301,-852 513.301,-764 169.669,-764"/>
</g>
<g id="clust5" class="cluster"><title>cluster_producers</title>
<polygon fill="white" stroke="black" points="390.882,-548 390.882,-744 846.196,-744 846.196,-548 390.882,-548"/>
</g>
<g id="clust6" class="cluster"><title>cluster_level_4</title>
<polygon fill="white" stroke="black" points="272.758,-224 272.758,-528 865.525,-528 865.525,-224 272.758,-224"/>
</g>
<g id="clust7" class="cluster"><title>cluster_level_5</title>
<polygon fill="white" stroke="black" points="17.1816,-116 17.1816,-204 541.222,-204 541.222,-116 17.1816,-116"/>
</g>
<g id="clust8" class="cluster"><title>cluster_level_6</title>
<polygon fill="white" stroke="black" points="36.511,-8 36.511,-96 541.222,-96 541.222,-8 36.511,-8"/>
</g>
<!-- scanner_compiler -->
<g id="node1" class="node"><title>scanner_compiler</title>
<polygon fill="none" stroke="black" points="975.38,-1060 862.38,-1060 862.38,-988 975.38,-988 975.38,-1060"/>
<text text-anchor="middle" x="918.88" y="-1020.3" font-family="Times,serif" font-size="14.00">scanner_compiler</text>
</g>
<!-- xformr_tools -->
<g id="node2" class="node"><title>xformr_tools</title>
<polygon fill="none" stroke="black" points="642.88,-1060 442.88,-1060 442.88,-988 642.88,-988 642.88,-1060"/>
<text text-anchor="middle" x="542.88" y="-1020.3" font-family="Times,serif" font-size="14.00">(USER) xformr and scanner tools</text>
</g>
<!-- cosmos_util -->
<g id="node4" class="node"><title>cosmos_util</title>
<polygon fill="none" stroke="black" points="584.38,-952 501.38,-952 501.38,-880 584.38,-880 584.38,-952"/>
<text text-anchor="middle" x="542.88" y="-912.3" font-family="Times,serif" font-size="14.00">cosmos_util</text>
</g>
<!-- xformr_tools&#45;&gt;cosmos_util -->
<g id="edge3" class="edge"><title>xformr_tools&#45;&gt;cosmos_util</title>
<path fill="none" stroke="black" d="M542.88,-987.998C542.88,-979.852 542.88,-971.063 542.88,-962.536"/>
<polygon fill="black" stroke="black" points="546.38,-962.328 542.88,-952.328 539.38,-962.328 546.38,-962.328"/>
</g>
<!-- libcosmos -->
<g id="node5" class="node"><title>libcosmos</title>
<polygon fill="none" stroke="black" points="372.88,-952 300.88,-952 300.88,-880 372.88,-880 372.88,-952"/>
<text text-anchor="middle" x="336.88" y="-912.3" font-family="Times,serif" font-size="14.00">libcosmos</text>
</g>
<!-- xformr_tools&#45;&gt;libcosmos -->
<g id="edge2" class="edge"><title>xformr_tools&#45;&gt;libcosmos</title>
<path fill="none" stroke="black" d="M474.857,-987.998C444.323,-972.286 409.135,-954.179 381.936,-940.184"/>
<polygon fill="black" stroke="black" points="383.53,-937.068 373.037,-935.605 380.328,-943.293 383.53,-937.068"/>
</g>
<!-- snafufs -->
<g id="node3" class="node"><title>snafufs</title>
<polygon fill="none" stroke="black" points="257.88,-1060 201.88,-1060 201.88,-988 257.88,-988 257.88,-1060"/>
<text text-anchor="middle" x="229.88" y="-1020.3" font-family="Times,serif" font-size="14.00">snafufs</text>
</g>
<!-- snafufs&#45;&gt;libcosmos -->
<g id="edge1" class="edge"><title>snafufs&#45;&gt;libcosmos</title>
<path fill="none" stroke="black" d="M257.993,-995.15C268.966,-984.279 281.794,-971.571 293.879,-959.6"/>
<polygon fill="black" stroke="black" points="296.642,-961.789 301.283,-952.264 291.716,-956.816 296.642,-961.789"/>
</g>
<!-- cosmos_util&#45;&gt;libcosmos -->
<g id="edge6" class="edge"><title>cosmos_util&#45;&gt;libcosmos</title>
<path fill="none" stroke="black" d="M501.096,-916C461.761,-916 422.426,-916 383.092,-916"/>
<polygon fill="black" stroke="black" points="383.091,-912.5 373.091,-916 383.091,-919.5 383.091,-912.5"/>
</g>
<!-- cosmosd -->
<g id="node6" class="node"><title>cosmosd</title>
<polygon fill="none" stroke="black" points="457.38,-844 392.38,-844 392.38,-772 457.38,-772 457.38,-844"/>
<text text-anchor="middle" x="424.88" y="-804.3" font-family="Times,serif" font-size="14.00">cosmosd</text>
</g>
<!-- libcosmos&#45;&gt;cosmosd -->
<g id="edge4" class="edge"><title>libcosmos&#45;&gt;cosmosd</title>
<path fill="none" stroke="black" d="M365.939,-879.998C373.296,-871.136 381.285,-861.512 388.938,-852.294"/>
<polygon fill="black" stroke="black" points="391.857,-854.257 395.552,-844.328 386.471,-849.786 391.857,-854.257"/>
</g>
<!-- libhiena -->
<g id="node7" class="node"><title>libhiena</title>
<polygon fill="none" stroke="black" points="280.88,-844 220.88,-844 220.88,-772 280.88,-772 280.88,-844"/>
<text text-anchor="middle" x="250.88" y="-804.3" font-family="Times,serif" font-size="14.00">libhiena</text>
</g>
<!-- libcosmos&#45;&gt;libhiena -->
<g id="edge5" class="edge"><title>libcosmos&#45;&gt;libhiena</title>
<path fill="none" stroke="black" d="M308.482,-879.998C301.293,-871.136 293.485,-861.512 286.006,-852.294"/>
<polygon fill="black" stroke="black" points="288.561,-849.888 279.542,-844.328 283.125,-854.298 288.561,-849.888"/>
</g>
<!-- lookup_fudge -->
<g id="node9" class="node"><title>lookup_fudge</title>
<polygon fill="none" stroke="black" points="775.88,-736 683.88,-736 683.88,-664 775.88,-664 775.88,-736"/>
<text text-anchor="middle" x="729.88" y="-696.3" font-family="Times,serif" font-size="14.00">lookup_fudge</text>
</g>
<!-- cosmosd&#45;&gt;lookup_fudge -->
<g id="edge9" class="edge"><title>cosmosd&#45;&gt;lookup_fudge</title>
<path fill="none" stroke="black" d="M457.521,-795.656C509.265,-777.673 610.746,-742.404 674.165,-720.363"/>
<polygon fill="black" stroke="black" points="675.323,-723.666 683.619,-717.078 673.025,-717.054 675.323,-723.666"/>
</g>
<!-- access_paths -->
<g id="node10" class="node"><title>access_paths</title>
<polygon fill="none" stroke="black" points="543.88,-736 457.88,-736 457.88,-664 543.88,-664 543.88,-736"/>
<text text-anchor="middle" x="500.88" y="-696.3" font-family="Times,serif" font-size="14.00">access_paths</text>
</g>
<!-- cosmosd&#45;&gt;access_paths -->
<g id="edge10" class="edge"><title>cosmosd&#45;&gt;access_paths</title>
<path fill="none" stroke="black" d="M449.976,-771.998C456.266,-763.226 463.09,-753.707 469.639,-744.574"/>
<polygon fill="black" stroke="black" points="472.569,-746.494 475.551,-736.328 466.88,-742.415 472.569,-746.494"/>
</g>
<!-- cosm -->
<g id="node11" class="node"><title>cosm</title>
<polygon fill="none" stroke="black" points="393.88,-412 339.88,-412 339.88,-340 393.88,-340 393.88,-412"/>
<text text-anchor="middle" x="366.88" y="-372.3" font-family="Times,serif" font-size="14.00">cosm</text>
</g>
<!-- cosmosd&#45;&gt;cosm -->
<g id="edge7" class="edge"><title>cosmosd&#45;&gt;cosm</title>
<path fill="none" stroke="black" d="M392.351,-775.698C384.186,-766.237 376.234,-755.332 370.88,-744 329.24,-655.868 341.357,-625.105 332.88,-528 329.788,-492.579 325.006,-482.673 332.88,-448 334.903,-439.093 338.186,-429.999 341.935,-421.421"/>
<polygon fill="black" stroke="black" points="345.11,-422.893 346.147,-412.349 338.761,-419.945 345.11,-422.893"/>
</g>
<!-- access_frame -->
<g id="node14" class="node"><title>access_frame</title>
<polygon fill="none" stroke="black" points="431.88,-520 341.88,-520 341.88,-448 431.88,-448 431.88,-520"/>
<text text-anchor="middle" x="386.88" y="-480.3" font-family="Times,serif" font-size="14.00">access_frame</text>
</g>
<!-- cosmosd&#45;&gt;access_frame -->
<g id="edge8" class="edge"><title>cosmosd&#45;&gt;access_frame</title>
<path fill="none" stroke="black" d="M399.187,-771.903C394.122,-763.196 389.551,-753.598 386.88,-744 366.653,-671.304 372.945,-582.622 379.679,-530.15"/>
<polygon fill="black" stroke="black" points="383.16,-530.531 381.025,-520.154 376.222,-529.597 383.16,-530.531"/>
</g>
<!-- dcel_producer -->
<g id="node8" class="node"><title>dcel_producer</title>
<polygon fill="none" stroke="black" points="774.88,-628 680.88,-628 680.88,-556 774.88,-556 774.88,-628"/>
<text text-anchor="middle" x="727.88" y="-588.3" font-family="Times,serif" font-size="14.00">dcel_producer</text>
</g>
<!-- dcel -->
<g id="node12" class="node"><title>dcel</title>
<polygon fill="none" stroke="black" points="492.88,-304 438.88,-304 438.88,-232 492.88,-232 492.88,-304"/>
<text text-anchor="middle" x="465.88" y="-264.3" font-family="Times,serif" font-size="14.00">dcel</text>
</g>
<!-- dcel_producer&#45;&gt;dcel -->
<g id="edge15" class="edge"><title>dcel_producer&#45;&gt;dcel</title>
<path fill="none" stroke="black" d="M774.945,-572.9C794.37,-562.816 814.88,-548.149 825.88,-528 842.918,-496.792 843.36,-478.962 825.88,-448 758.202,-328.124 581.135,-286.713 503.394,-274.017"/>
<polygon fill="black" stroke="black" points="503.526,-270.495 493.106,-272.411 502.446,-277.412 503.526,-270.495"/>
</g>
<!-- dcel_producer&#45;&gt;access_frame -->
<g id="edge16" class="edge"><title>dcel_producer&#45;&gt;access_frame</title>
<path fill="none" stroke="black" d="M680.824,-576.372C618.348,-556.952 508.212,-522.716 441.943,-502.116"/>
<polygon fill="black" stroke="black" points="442.685,-498.682 432.097,-499.056 440.607,-505.366 442.685,-498.682"/>
</g>
<!-- scanner_lib -->
<g id="node15" class="node"><title>scanner_lib</title>
<polygon fill="none" stroke="black" points="647.38,-520 568.38,-520 568.38,-448 647.38,-448 647.38,-520"/>
<text text-anchor="middle" x="607.88" y="-480.3" font-family="Times,serif" font-size="14.00">scanner_lib</text>
</g>
<!-- dcel_producer&#45;&gt;scanner_lib -->
<g id="edge18" class="edge"><title>dcel_producer&#45;&gt;scanner_lib</title>
<path fill="none" stroke="black" d="M688.255,-555.998C677.605,-546.591 665.984,-536.325 654.971,-526.597"/>
<polygon fill="black" stroke="black" points="657.276,-523.963 647.464,-519.965 652.641,-529.209 657.276,-523.963"/>
</g>
<!-- grid -->
<g id="node16" class="node"><title>grid</title>
<polygon fill="none" stroke="black" points="816.88,-520 762.88,-520 762.88,-448 816.88,-448 816.88,-520"/>
<text text-anchor="middle" x="789.88" y="-480.3" font-family="Times,serif" font-size="14.00">grid</text>
</g>
<!-- dcel_producer&#45;&gt;grid -->
<g id="edge17" class="edge"><title>dcel_producer&#45;&gt;grid</title>
<path fill="none" stroke="black" d="M748.353,-555.998C753.379,-547.405 758.825,-538.095 764.066,-529.134"/>
<polygon fill="black" stroke="black" points="767.189,-530.727 769.217,-520.328 761.147,-527.192 767.189,-530.727"/>
</g>
<!-- lookup_fudge&#45;&gt;dcel_producer -->
<g id="edge14" class="edge"><title>lookup_fudge&#45;&gt;dcel_producer</title>
<path fill="none" stroke="black" d="M729.22,-663.998C729.066,-655.852 728.9,-647.063 728.739,-638.536"/>
<polygon fill="black" stroke="black" points="732.235,-638.26 728.547,-628.328 725.236,-638.392 732.235,-638.26"/>
</g>
<!-- cosm&#45;&gt;dcel -->
<g id="edge11" class="edge"><title>cosm&#45;&gt;dcel</title>
<path fill="none" stroke="black" d="M393.932,-346.035C405.61,-333.532 419.401,-318.765 431.77,-305.522"/>
<polygon fill="black" stroke="black" points="434.593,-307.627 438.861,-297.93 429.477,-302.849 434.593,-307.627"/>
</g>
<!-- frag -->
<g id="node17" class="node"><title>frag</title>
<polygon fill="none" stroke="black" points="492.88,-196 438.88,-196 438.88,-124 492.88,-124 492.88,-196"/>
<text text-anchor="middle" x="465.88" y="-156.3" font-family="Times,serif" font-size="14.00">frag</text>
</g>
<!-- dcel&#45;&gt;frag -->
<g id="edge20" class="edge"><title>dcel&#45;&gt;frag</title>
<path fill="none" stroke="black" d="M465.88,-231.998C465.88,-223.852 465.88,-215.063 465.88,-206.536"/>
<polygon fill="black" stroke="black" points="469.38,-206.328 465.88,-196.328 462.38,-206.328 469.38,-206.328"/>
</g>
<!-- mapsvc -->
<g id="node13" class="node"><title>mapsvc</title>
<polygon fill="none" stroke="black" points="637.38,-412 578.38,-412 578.38,-340 637.38,-340 637.38,-412"/>
<text text-anchor="middle" x="607.88" y="-372.3" font-family="Times,serif" font-size="14.00">mapsvc</text>
</g>
<!-- access_frame&#45;&gt;cosm -->
<g id="edge13" class="edge"><title>access_frame&#45;&gt;cosm</title>
<path fill="none" stroke="black" d="M380.276,-447.998C378.722,-439.763 377.044,-430.87 375.419,-422.255"/>
<polygon fill="black" stroke="black" points="378.839,-421.505 373.546,-412.328 371.961,-422.803 378.839,-421.505"/>
</g>
<!-- access_frame&#45;&gt;dcel -->
<g id="edge12" class="edge"><title>access_frame&#45;&gt;dcel</title>
<path fill="none" stroke="black" d="M399.925,-447.662C413.488,-410.922 434.753,-353.32 449.453,-313.5"/>
<polygon fill="black" stroke="black" points="452.767,-314.628 452.947,-304.035 446.2,-312.204 452.767,-314.628"/>
</g>
<!-- scanner_lib&#45;&gt;mapsvc -->
<g id="edge19" class="edge"><title>scanner_lib&#45;&gt;mapsvc</title>
<path fill="none" stroke="black" d="M607.88,-447.998C607.88,-439.852 607.88,-431.063 607.88,-422.536"/>
<polygon fill="black" stroke="black" points="611.38,-422.328 607.88,-412.328 604.38,-422.328 611.38,-422.328"/>
</g>
<!-- btree -->
<g id="node20" class="node"><title>btree</title>
<polygon fill="none" stroke="black" points="492.88,-88 438.88,-88 438.88,-16 492.88,-16 492.88,-88"/>
<text text-anchor="middle" x="465.88" y="-48.3" font-family="Times,serif" font-size="14.00">btree</text>
</g>
<!-- frag&#45;&gt;btree -->
<g id="edge21" class="edge"><title>frag&#45;&gt;btree</title>
<path fill="none" stroke="black" d="M465.88,-123.998C465.88,-115.852 465.88,-107.063 465.88,-98.5365"/>
<polygon fill="black" stroke="black" points="469.38,-98.3275 465.88,-88.3275 462.38,-98.3276 469.38,-98.3275"/>
</g>
<!-- mfrag -->
<g id="node18" class="node"><title>mfrag</title>
<polygon fill="none" stroke="black" points="338.88,-196 284.88,-196 284.88,-124 338.88,-124 338.88,-196"/>
<text text-anchor="middle" x="311.88" y="-156.3" font-family="Times,serif" font-size="14.00">mfrag</text>
</g>
<!-- map_anchor -->
<g id="node19" class="node"><title>map_anchor</title>
<polygon fill="none" stroke="black" points="166.88,-196 82.8802,-196 82.8802,-124 166.88,-124 166.88,-196"/>
<text text-anchor="middle" x="124.88" y="-156.3" font-family="Times,serif" font-size="14.00">map_anchor</text>
</g>
<!-- flat_array -->
<g id="node21" class="node"><title>flat_array</title>
<polygon fill="none" stroke="black" points="328.38,-88 259.38,-88 259.38,-16 328.38,-16 328.38,-88"/>
<text text-anchor="middle" x="293.88" y="-48.3" font-family="Times,serif" font-size="14.00">flat_array</text>
</g>
<!-- hash_fn -->
<g id="node22" class="node"><title>hash_fn</title>
<polygon fill="none" stroke="black" points="147.38,-88 88.3802,-88 88.3802,-16 147.38,-16 147.38,-88"/>
<text text-anchor="middle" x="117.88" y="-48.3" font-family="Times,serif" font-size="14.00">hash_fn</text>
</g>
</g>
</svg>
